<svg width="610" height="243" viewBox="0 0 610 243" fill="none" xmlns="http://www.w3.org/2000/svg">
<path d="M454.22 222.408H456.416L460.808 234H458.792L457.64 231.012H452.978L451.826 234H449.792L454.22 222.408ZM457.316 229.5L455.3 224.19L453.284 229.5H457.316ZM460.848 225.468H462.882L465.276 232.092L467.67 225.468H469.686L466.338 234H464.214L460.848 225.468ZM472.116 222.066H474.258V223.686H472.116V222.066ZM472.278 226.962H470.982L471.162 225.468H474.24V234H472.278V226.962ZM478.643 234.18C477.923 234.18 477.389 234.006 477.041 233.658C476.693 233.31 476.519 232.746 476.519 231.966V221.868H478.481V231.786C478.481 232.11 478.535 232.338 478.643 232.47C478.763 232.59 478.949 232.65 479.201 232.65C479.489 232.65 479.765 232.614 480.029 232.542V233.964C479.633 234.108 479.171 234.18 478.643 234.18ZM485.021 221.418H486.749L485.237 224.604H483.671L485.021 221.418ZM485.075 234.18C483.563 234.18 482.405 233.808 481.601 233.064C480.797 232.32 480.395 231.204 480.395 229.716C480.395 228.312 480.749 227.226 481.457 226.458C482.165 225.678 483.215 225.288 484.607 225.288C485.867 225.288 486.833 225.618 487.505 226.278C488.177 226.938 488.513 227.82 488.513 228.924V230.508H482.267C482.363 231.324 482.657 231.894 483.149 232.218C483.641 232.53 484.415 232.686 485.471 232.686C485.903 232.686 486.341 232.644 486.785 232.56C487.241 232.476 487.643 232.368 487.991 232.236V233.676C487.235 234.012 486.263 234.18 485.075 234.18ZM486.785 229.23V228.636C486.785 228.024 486.617 227.562 486.281 227.25C485.945 226.926 485.405 226.764 484.661 226.764C483.773 226.764 483.149 226.956 482.789 227.34C482.441 227.724 482.267 228.354 482.267 229.23H486.785ZM493.267 234.18C492.691 234.18 492.133 234.138 491.593 234.054C491.053 233.982 490.609 233.88 490.261 233.748V232.092C490.657 232.248 491.095 232.368 491.575 232.452C492.067 232.536 492.547 232.578 493.015 232.578C493.711 232.578 494.197 232.518 494.473 232.398C494.749 232.278 494.887 232.044 494.887 231.696C494.887 231.384 494.761 231.156 494.509 231.012C494.257 230.856 493.783 230.67 493.087 230.454L492.547 230.274C491.683 229.986 491.053 229.668 490.657 229.32C490.261 228.96 490.063 228.432 490.063 227.736C490.063 226.932 490.351 226.326 490.927 225.918C491.503 225.498 492.403 225.288 493.627 225.288C494.095 225.288 494.551 225.324 494.995 225.396C495.451 225.468 495.841 225.558 496.165 225.666V227.304C495.841 227.172 495.475 227.07 495.067 226.998C494.671 226.926 494.293 226.89 493.933 226.89C493.273 226.89 492.793 226.95 492.493 227.07C492.193 227.178 492.043 227.388 492.043 227.7C492.043 227.976 492.157 228.186 492.385 228.33C492.613 228.462 493.063 228.636 493.735 228.852L494.131 228.978C494.827 229.194 495.367 229.416 495.751 229.644C496.135 229.86 496.411 230.13 496.579 230.454C496.759 230.766 496.849 231.174 496.849 231.678C496.849 233.346 495.655 234.18 493.267 234.18ZM507.235 234.18C506.251 234.18 505.411 234.042 504.715 233.766V232.11C505.003 232.242 505.339 232.344 505.723 232.416C506.119 232.488 506.509 232.524 506.893 232.524C507.685 232.524 508.243 232.362 508.567 232.038C508.891 231.714 509.053 231.18 509.053 230.436V222.408H511.015V230.76C511.015 231.876 510.697 232.728 510.061 233.316C509.425 233.892 508.483 234.18 507.235 234.18ZM517.273 234.18C514.309 234.18 512.827 232.698 512.827 229.734C512.827 226.77 514.309 225.288 517.273 225.288C520.249 225.288 521.737 226.77 521.737 229.734C521.737 232.698 520.249 234.18 517.273 234.18ZM517.273 232.524C518.173 232.524 518.809 232.308 519.181 231.876C519.565 231.444 519.757 230.73 519.757 229.734C519.757 228.75 519.565 228.042 519.181 227.61C518.809 227.178 518.173 226.962 517.273 226.962C516.385 226.962 515.749 227.178 515.365 227.61C514.993 228.042 514.807 228.75 514.807 229.734C514.807 230.73 514.993 231.444 515.365 231.876C515.749 232.308 516.385 232.524 517.273 232.524ZM525.853 234.18C524.989 234.18 524.269 233.958 523.693 233.514C523.117 233.058 522.829 232.41 522.829 231.57C522.829 230.73 523.111 230.07 523.675 229.59C524.251 229.098 525.109 228.852 526.249 228.852H528.985V228.474C528.985 228.054 528.919 227.73 528.787 227.502C528.667 227.262 528.439 227.088 528.103 226.98C527.767 226.872 527.287 226.818 526.663 226.818C525.655 226.818 524.713 226.968 523.837 227.268V225.81C524.245 225.654 524.725 225.528 525.277 225.432C525.829 225.336 526.411 225.288 527.023 225.288C528.295 225.288 529.249 225.546 529.885 226.062C530.533 226.578 530.857 227.394 530.857 228.51V234H529.183L529.057 233.136C528.697 233.484 528.259 233.748 527.743 233.928C527.227 234.096 526.597 234.18 525.853 234.18ZM526.375 232.776C526.939 232.776 527.443 232.68 527.887 232.488C528.331 232.296 528.697 232.026 528.985 231.678V230.184H526.285C525.709 230.184 525.289 230.292 525.025 230.508C524.773 230.724 524.647 231.066 524.647 231.534C524.647 231.966 524.791 232.284 525.079 232.488C525.367 232.68 525.799 232.776 526.375 232.776ZM541.564 238.356C540.796 238.356 540.22 238.164 539.836 237.78C539.464 237.396 539.278 236.796 539.278 235.98V233.46C538.546 233.94 537.664 234.18 536.632 234.18C533.992 234.18 532.672 232.746 532.672 229.878C532.672 228.366 533.014 227.226 533.698 226.458C534.382 225.678 535.342 225.288 536.578 225.288C537.19 225.288 537.718 225.372 538.162 225.54C538.618 225.708 539.044 225.966 539.44 226.314L539.566 225.468H541.24V235.836C541.24 236.22 541.3 236.478 541.42 236.61C541.552 236.754 541.798 236.826 542.158 236.826C542.374 236.826 542.626 236.79 542.914 236.718V238.14C542.506 238.284 542.056 238.356 541.564 238.356ZM537.136 232.704C537.988 232.704 538.702 232.452 539.278 231.948V227.682C538.69 227.082 537.964 226.782 537.1 226.782C536.248 226.782 535.624 227.04 535.228 227.556C534.844 228.06 534.652 228.828 534.652 229.86C534.652 230.892 534.85 231.624 535.246 232.056C535.642 232.488 536.272 232.704 537.136 232.704ZM546.288 234.18C545.268 234.18 544.482 233.898 543.93 233.334C543.39 232.758 543.12 231.93 543.12 230.85V225.468H545.082V230.85C545.082 231.486 545.238 231.954 545.55 232.254C545.862 232.554 546.342 232.704 546.99 232.704C547.458 232.704 547.896 232.62 548.304 232.452C548.712 232.272 549.072 232.026 549.384 231.714V225.468H551.328V234H549.546L549.456 233.118C548.556 233.826 547.5 234.18 546.288 234.18ZM556.226 221.418H557.954L556.442 224.604H554.876L556.226 221.418ZM554.912 226.962H553.616L553.796 225.468H556.874V234H554.912V226.962ZM559.154 225.468H560.954L561.044 226.368C561.452 226.044 561.926 225.786 562.466 225.594C563.006 225.39 563.582 225.288 564.194 225.288C565.298 225.288 566.102 225.546 566.606 226.062C567.11 226.578 567.362 227.382 567.362 228.474V234H565.418V228.564C565.418 227.904 565.28 227.442 565.004 227.178C564.728 226.914 564.224 226.782 563.492 226.782C563.048 226.782 562.61 226.872 562.178 227.052C561.758 227.232 561.404 227.466 561.116 227.754V234H559.154V225.468Z" fill="#494949"/>
<path d="M22.328 12.664V3H3V22.328H12.06M22.328 12.664V22.328H12.06M22.328 12.664H587.672M12.06 22.328V221.044M12.06 221.044H3V240.372H22.328V230.708M12.06 221.044H22.328V230.708M22.328 230.708H305H442M587.672 12.664V3H607V22.328H596.732M587.672 12.664V22.328H596.732M596.732 22.328V221.044M596.732 221.044H607V240.372H587.672V230.708M596.732 221.044H587.672V230.708M587.672 230.708H573.5" stroke="#6E61FF" stroke-width="4.832"/>
</svg>
