<svg width="443" height="88" viewBox="0 0 443 88" fill="none" xmlns="http://www.w3.org/2000/svg">
<path d="M2.2493 70.824L1.90587 72.9418C1.14268 77.7118 2.32562 81.356 5.45471 83.8746C8.58379 86.3931 13.5827 87.6524 20.4514 87.6524C27.4728 87.6524 33.0631 86.5266 37.2225 84.2752C41.3819 81.9857 43.9195 78.246 44.8354 73.0563C45.6749 69.4693 44.8926 66.7028 42.4885 64.7566C40.0845 62.8105 35.8488 61.494 29.7814 60.8071C26.1181 60.5782 23.6759 60.0821 22.4548 59.3189C21.2718 58.5175 20.8139 57.3537 21.081 55.8273C21.4245 53.9956 22.2258 52.7554 23.4851 52.1067C24.7825 51.458 26.5951 51.1337 28.9228 51.1337C31.6322 51.1337 33.6928 51.7633 35.1047 53.0226C36.5166 54.2437 37.0317 56.2089 36.6501 58.9182L36.3067 60.8644H47.9835L48.4414 58.3458C49.2809 54.3009 48.2125 50.9429 45.236 48.2717C42.2596 45.5624 37.5469 44.2077 31.0979 44.2077C24.7253 44.2077 19.5737 45.238 15.6433 47.2986C11.751 49.3592 9.36606 52.6791 8.48839 57.2583C7.7252 60.7308 8.16403 63.5546 9.80489 65.7297C11.4458 67.9048 15.09 69.3358 20.7376 70.0226C24.5154 70.3661 27.2056 70.9766 28.8083 71.8543C30.4492 72.732 31.0979 74.0676 30.7545 75.8611C30.3729 77.8835 29.4761 79.2763 28.0642 80.0395C26.6905 80.8027 24.5917 81.1843 21.7679 81.1843C18.8296 81.1843 16.6355 80.5928 15.1854 79.4099C13.7353 78.2269 13.2202 76.1473 13.6399 73.1708L13.9834 70.9385L2.2493 70.824ZM50.96 86.5076H65.2698L74.4853 45.6387H60.1755L50.96 86.5076ZM63.0375 24.4601C62.6177 26.4826 62.8848 28.2379 63.8388 29.7262C64.831 31.1762 66.5481 31.9013 68.9904 31.9013C71.4326 31.9013 73.455 31.1762 75.0577 29.7262C76.6986 28.2379 77.748 26.4635 78.2059 24.4029C78.6256 22.3041 78.3394 20.5679 77.3473 19.1941C76.3933 17.8204 74.6761 17.1335 72.1958 17.1335C69.7535 17.1335 67.7311 17.8395 66.1284 19.2514C64.5257 20.6633 63.4954 22.3995 63.0375 24.4601ZM75.2867 86.5076H89.3103L95.5494 60.2347C96.7324 58.4031 98.2015 56.8576 99.9568 55.5983C101.712 54.3009 103.582 53.6522 105.566 53.6522C107.78 53.6522 109.478 54.2437 110.661 55.4266C111.882 56.5714 112.244 58.6893 111.748 61.7802L105.795 86.5076H119.876L126.115 60.2347C127.298 58.3649 128.767 56.8004 130.523 55.5411C132.278 54.2818 134.148 53.6522 136.132 53.6522C138.345 53.6522 140.043 54.2818 141.226 55.5411C142.409 56.7622 142.753 58.9373 142.257 62.0664L136.304 86.5076H150.385L156.91 58.9182C157.94 53.843 157.311 50.1606 155.021 47.871C152.77 45.5433 149.545 44.3794 145.348 44.3794C141.646 44.3794 138.135 45.1426 134.816 46.669C131.496 48.1954 128.825 50.1606 126.802 52.5646H126.745C126.401 50.0843 125.123 48.1191 122.91 46.669C120.735 45.1808 117.968 44.4367 114.61 44.4367C110.947 44.4367 107.627 45.1808 104.65 46.669C101.674 48.1572 99.1746 50.1606 97.1521 52.6791L98.4114 45.6387H84.5022L75.2867 86.5076ZM160.917 72.1977C159.886 77.6927 160.535 81.6422 162.863 84.0463C165.229 86.4503 168.72 87.6524 173.338 87.6524C177.344 87.6524 180.836 86.9082 183.812 85.42C186.827 83.9318 189.212 81.9666 190.967 79.5244H190.91L189.708 86.5076H203.732L212.947 45.5815H198.924L192.685 71.5681C191.387 73.5906 189.842 75.2887 188.048 76.6624C186.293 77.998 184.347 78.6658 182.21 78.6658C179.691 78.6658 177.821 78.0361 176.6 76.7769C175.379 75.4795 175.017 73.1708 175.513 69.8509L181.523 45.6387H167.442L160.917 72.1977ZM214.149 86.5076H228.345L243.055 0.362386H228.86L214.149 86.5076ZM238.934 74.659C238.018 78.7803 238.667 81.9093 240.88 84.0463C243.093 86.1451 246.661 87.1944 251.584 87.1944C255.781 87.1944 259.407 86.4885 262.459 85.0766C265.55 83.6647 267.821 82.1574 269.271 80.5547C269.194 81.6613 269.233 82.7298 269.385 83.7601C269.538 84.7904 269.786 85.7062 270.129 86.5076H283.867L284.038 85.7062C283.542 84.4088 283.294 82.9015 283.294 81.1843C283.294 79.4671 283.466 77.5592 283.81 75.4604L288.331 58.632C289.4 53.4805 288.408 49.8172 285.355 47.6421C282.302 45.467 277.399 44.3794 270.644 44.3794C263.699 44.3794 258.109 45.3907 253.873 47.4131C249.638 49.4356 247.138 52.2785 246.375 55.9418L245.917 59.2617L258.567 59.3189L259.025 56.0562C259.33 54.2627 260.265 53.0798 261.83 52.5074C263.432 51.8969 265.55 51.5916 268.183 51.5916C270.664 51.5916 272.419 52.0877 273.449 53.0798C274.48 54.0338 274.804 55.5983 274.422 57.7734L273.506 61.8947H262.345C255.552 61.8947 250.191 63.0204 246.261 65.2718C242.33 67.5232 239.888 70.6523 238.934 74.659ZM253.015 73.9149C253.511 71.4727 254.808 69.9845 256.907 69.4502C259.006 68.8779 261.715 68.5917 265.035 68.5917H272.19L270.816 72.026C270.435 74.3156 269.042 76.319 266.638 78.0361C264.272 79.7152 261.925 80.5547 259.597 80.5547C257.499 80.5547 255.743 80.1922 254.331 79.4671C252.958 78.7039 252.519 76.8532 253.015 73.9149ZM293.712 69.5647C292.491 74.9071 293.063 79.2382 295.429 82.5581C297.833 85.8398 301.973 87.4806 307.85 87.4806C311.552 87.4806 314.757 86.7556 317.466 85.3055C320.176 83.8173 322.58 82.1383 324.678 80.2685L324.736 79.925L323.648 86.5076H337.271L351.982 0.362386H338.244L331.891 51.4771C330.746 49.4546 329.086 47.7947 326.911 46.4973C324.736 45.1999 321.721 44.5511 317.867 44.5511C312.181 44.5511 307.259 46.1538 303.099 49.3592C298.94 52.5646 296.25 56.8385 295.028 62.1809L293.712 69.5647ZM307.736 69.8509L309.109 62.3526C309.72 59.5288 310.96 57.3155 312.83 55.7128C314.738 54.072 317.409 53.2515 320.843 53.2515C323.171 53.2515 325.136 53.8239 326.739 54.9687C328.342 56.1135 329.353 57.678 329.773 59.6623L326.281 72.6557C325.327 74.2965 323.801 75.7466 321.702 77.0058C319.603 78.2269 317.371 78.8375 315.005 78.8375C311.571 78.8375 309.338 78.0361 308.308 76.4334C307.316 74.7926 307.125 72.5984 307.736 69.8509ZM349.005 69.5075C347.708 75.1551 348.91 79.6007 352.611 82.8443C356.313 86.0497 361.884 87.6524 369.325 87.6524C376.843 87.6524 383.196 86.0497 388.386 82.8443C393.614 79.6007 396.876 75.1551 398.174 69.5075L399.49 62.1809C400.749 56.6859 399.528 52.3166 395.827 49.0731C392.164 45.8295 386.573 44.2077 379.056 44.2077C371.615 44.2077 365.28 45.8295 360.052 49.0731C354.824 52.3166 351.581 56.6859 350.322 62.1809L349.005 69.5075ZM364.46 61.6657C365.07 58.4603 366.444 56.2661 368.581 55.0832C370.718 53.9002 373.484 53.3088 376.881 53.3088C380.315 53.3088 382.757 53.9002 384.207 55.0832C385.696 56.2661 386.134 58.4603 385.524 61.6657L383.978 70.3088C383.368 73.7814 381.975 76.0709 379.8 77.1776C377.663 78.246 374.896 78.7803 371.5 78.7803C368.104 78.7803 365.681 78.246 364.231 77.1776C362.781 76.0709 362.342 73.7814 362.914 70.3088L364.46 61.6657ZM401.494 86.5076H415.861L421.642 62.9822C423.397 60.1584 425.553 57.8497 428.11 56.0562C430.667 54.2627 433.09 53.366 435.379 53.366C436.486 53.366 437.478 53.4614 438.356 53.6522C439.233 53.8048 439.977 53.9956 440.588 54.2246L442.878 45.3525C442.534 45.1999 441.905 45.0663 440.989 44.9518C440.073 44.7992 439.1 44.7229 438.07 44.7229C435.131 44.7229 432.422 45.4288 429.942 46.8407C427.499 48.2526 425.42 50.1224 423.702 52.4502H423.76L424.962 45.6387H410.709L401.494 86.5076Z" fill="#6E61FF"/>
</svg>
